<?xml version="1.0" standalone="no"?>
<!DOCTYPE svg PUBLIC "-//W3C//DTD SVG 20010904//EN"
 "http://www.w3.org/TR/2001/REC-SVG-20010904/DTD/svg10.dtd">
<svg version="1.0" xmlns="http://www.w3.org/2000/svg"
 width="700.000000pt" height="700.000000pt" viewBox="0 0 700.000000 700.000000"
 preserveAspectRatio="xMidYMid meet">
<metadata>
Created by potrace 1.14, written by Peter Selinger 2001-2017
</metadata>
<g transform="translate(0.000000,700.000000) scale(0.100000,-0.100000)"
fill="#000000" stroke="none">
<path d="M4723 6985 c38 -133 47 -194 52 -345 21 -721 -492 -1384 -1460 -1886
-186 -96 -349 -169 -635 -284 -182 -73 -364 -160 -515 -245 -120 -67 -354
-230 -440 -306 -239 -210 -369 -356 -510 -572 -58 -89 -185 -336 -185 -360 0
-7 -4 -17 -9 -22 -34 -38 -116 -362 -138 -545 -13 -103 -9 -506 5 -600 70
-468 220 -883 495 -1372 39 -69 74 -125 77 -123 3 2 7 21 8 42 2 21 14 112 28
203 135 882 425 1642 843 2210 338 460 746 788 1246 1002 118 50 371 138 399
138 6 0 -34 -25 -88 -56 -273 -153 -567 -397 -777 -644 -35 -41 -66 -77 -69
-80 -3 -3 -35 -43 -71 -90 -463 -602 -766 -1377 -904 -2315 -9 -65 -43 -375
-49 -450 -3 -38 -8 -104 -12 -146 l-6 -76 99 -13 c54 -7 116 -14 138 -16 22
-2 61 -5 87 -8 141 -15 282 -21 543 -21 300 0 423 6 625 31 108 13 127 15 150
20 14 2 41 7 60 10 45 7 63 10 130 24 30 6 66 13 79 16 123 25 400 108 496
149 17 7 66 28 110 46 206 87 465 242 625 376 12 10 31 26 43 36 149 126 328
332 438 507 30 47 60 95 67 105 18 29 125 249 156 321 56 133 148 439 186 624
23 111 24 116 34 195 4 28 9 57 11 65 2 8 7 40 11 70 3 30 8 66 9 80 26 209
27 828 1 968 -2 9 -7 46 -10 82 -4 36 -11 88 -16 115 -5 28 -12 71 -15 98 -15
127 -102 511 -156 692 -155 517 -347 975 -603 1447 -98 180 -202 357 -258 440
-21 31 -38 59 -38 61 0 8 -147 223 -223 327 -38 52 -67 86 -64 75z"/>
<path d="M1659 6435 c-211 -55 -322 -278 -235 -471 90 -197 342 -263 512 -135
171 129 186 374 31 522 -77 75 -207 110 -308 84z"/>
<path d="M3602 6235 c-78 -24 -138 -79 -181 -167 -114 -231 100 -493 353 -433
87 20 139 56 192 135 39 57 53 113 48 191 -13 201 -215 336 -412 274z"/>
<path d="M2714 5396 c-36 -36 -43 -71 -24 -120 24 -64 121 -80 172 -29 69 70
23 183 -75 183 -31 0 -46 -7 -73 -34z"/>
<path d="M1793 4920 c-91 -55 -94 -177 -6 -231 48 -30 122 -23 162 16 38 36
52 91 36 139 -16 47 -28 61 -69 80 -45 21 -84 20 -123 -4z"/>
<path d="M1221 4798 c-117 -21 -190 -164 -137 -267 75 -144 270 -145 342 -1
70 138 -51 296 -205 268z"/>
</g>
</svg>
